<?xml version="1.0" encoding="iso-8859-1"?>
<!-- Uploaded to: SVG Repo, www.svgrepo.com, Generator: SVG Repo Mixer Tools -->
<svg fill="#ff7b54" height="800px" width="800px" version="1.1" id="Layer_1" xmlns="http://www.w3.org/2000/svg" xmlns:xlink="http://www.w3.org/1999/xlink" 
	 viewBox="0 0 512 512" xml:space="preserve">
<g>
	<g>
		<path d="M256,0C153.259,0,42.667,26.709,42.667,85.333v341.333C42.667,485.291,153.259,512,256,512
			c102.763,0,213.333-26.709,213.333-85.333V85.333C469.333,26.709,358.763,0,256,0z M173.952,390.4
			c-6.869,1.152-13.504,2.432-19.84,3.84c-1.579,0.341-3.136,0.512-4.672,0.512c-9.771,0-18.581-6.763-20.8-16.683
			c-2.56-11.52,4.693-22.912,16.192-25.472c7.061-1.557,14.421-2.987,22.059-4.267c11.755-1.877,22.635,5.888,24.576,17.493
			C193.408,377.451,185.579,388.437,173.952,390.4z M276.779,384.363h-0.768C269.44,384.128,262.763,384,256,384
			c-11.776,0-21.611-9.536-21.611-21.333c0-11.776,9.237-21.333,21.035-21.333H256c7.275,0,14.443,0.128,21.504,0.384
			c11.776,0.427,20.992,10.283,20.587,22.08C297.685,375.317,288.213,384.363,276.779,384.363z M402.581,384.363
			c-2.709,9.323-11.221,15.403-20.48,15.403c-1.963,0-3.968-0.299-5.952-0.853c-6.101-1.771-12.565-3.413-19.328-4.907
			c-11.499-2.539-18.773-13.909-16.256-25.408c2.539-11.499,13.973-18.795,25.429-16.256c7.723,1.707,15.083,3.563,22.037,5.589
			C399.36,361.216,405.867,373.056,402.581,384.363z M256,128C144.021,128,85.333,96.32,85.333,85.333
			c0-10.965,58.688-42.667,170.667-42.667c112,0,170.667,31.701,170.667,42.667C426.667,96.32,368,128,256,128z"/>
	</g>
</g>
</svg>