<?xml version="1.0" encoding="iso-8859-1"?>
<!-- Uploaded to: SVG Repo, www.svgrepo.com, Generator: SVG Repo Mixer Tools -->
<!DOCTYPE svg PUBLIC "-//W3C//DTD SVG 1.1//EN" "http://www.w3.org/Graphics/SVG/1.1/DTD/svg11.dtd">
<svg fill="#ff7b54" version="1.1" id="Capa_1" xmlns="http://www.w3.org/2000/svg" xmlns:xlink="http://www.w3.org/1999/xlink" 
	 width="800px" height="800px" viewBox="0 0 371.207 371.208"
	 xml:space="preserve">
<g>
	<g>
		<path d="M72.841,0C54.669,0,39.323,8.042,39.323,17.555c0,9.516,15.346,17.556,33.518,17.556c18.165,0,33.518-8.04,33.518-17.556
			C106.354,8.042,91.006,0,72.841,0z M72.841,29.777c-12.741,0-22.346-5.25-22.346-12.216S60.101,5.347,72.841,5.347
			c12.733,0,22.338,5.252,22.338,12.213S85.574,29.777,72.841,29.777z"/>
		<path d="M72.841,10.748c-10.346,0-16.946,4.039-16.946,6.813c0,2.777,6.6,6.816,16.946,6.816c10.341,0,16.938-4.034,16.938-6.816
			C89.78,14.782,83.183,10.748,72.841,10.748z M77.748,20.26H67.312c-1.493,0-2.7-1.207-2.7-2.7c0-1.49,1.208-2.7,2.7-2.7h10.436
			c1.493,0,2.7,1.21,2.7,2.7C80.448,19.053,79.241,20.26,77.748,20.26z"/>
		<path d="M106.354,29.344c-3.501,3.509-8.506,6.399-14.576,8.353c0,0.044,0.021,0.077,0.021,0.119v110.188c0,1.49-1.21,2.7-2.7,2.7
			c-1.49,0-2.7-1.21-2.7-2.7V39.103c-4.211,0.896-8.765,1.408-13.563,1.408c-14.462,0-26.808-4.442-33.518-11.171v100.849
			c0,0.008,0,0.013,0,0.013v223.441c0,9.519,15.346,17.556,33.518,17.556c18.165,0,33.518-8.042,33.518-17.556V137.89
			c0-0.006,0-0.011,0-0.011V29.344z M75.542,285.261c0,1.487-1.21,2.7-2.7,2.7c-1.492,0-2.7-1.213-2.7-2.7V148.004
			c0-1.492,1.208-2.7,2.7-2.7c1.49,0,2.7,1.208,2.7,2.7V285.261z M91.805,334.42c0,1.487-1.21,2.7-2.7,2.7
			c-1.489,0-2.7-1.213-2.7-2.7v-64.257c0-1.492,1.21-2.7,2.7-2.7c1.49,0,2.7,1.208,2.7,2.7V334.42z M91.805,241.924
			c0,1.492-1.21,2.7-2.7,2.7c-1.489,0-2.7-1.208-2.7-2.7v-16.58c0-1.477,1.21-2.699,2.7-2.699c1.49,0,2.7,1.223,2.7,2.699V241.924z"
			/>
		<path d="M183.887,0c-18.172,0-33.518,8.042-33.518,17.555c0,9.516,15.346,17.556,33.518,17.556c18.17,0,33.516-8.04,33.516-17.556
			C217.402,8.042,202.057,0,183.887,0z M183.887,29.777c-12.738,0-22.346-5.25-22.346-12.216s9.608-12.213,22.346-12.213
			c12.738,0,22.347,5.252,22.347,12.213S196.625,29.777,183.887,29.777z"/>
		<path d="M183.887,10.748c-10.347,0-16.946,4.039-16.946,6.813c0,2.777,6.6,6.816,16.946,6.816c10.344,0,16.946-4.034,16.946-6.816
			C200.833,14.782,194.23,10.748,183.887,10.748z M188.799,20.26h-10.436c-1.492,0-2.7-1.207-2.7-2.7c0-1.49,1.208-2.7,2.7-2.7
			h10.436c1.492,0,2.7,1.21,2.7,2.7C191.499,19.053,190.291,20.26,188.799,20.26z"/>
		<path d="M217.402,29.344c-3.486,3.509-8.501,6.399-14.576,8.353c0,0.044,0.021,0.077,0.021,0.119v110.188
			c0,1.49-1.202,2.7-2.7,2.7c-1.477,0-2.7-1.21-2.7-2.7V39.103c-4.197,0.902-8.762,1.414-13.555,1.414
			c-14.462,0-26.805-4.443-33.518-11.172v100.839c0,0.013,0.005,0.018,0.005,0.028l-0.016,223.441
			c0,9.519,15.346,17.555,33.519,17.555c18.169,0,33.521-8.042,33.521-17.555V137.89c0-0.006,0-0.011,0-0.011V29.344z
			 M186.587,285.261c0,1.487-1.21,2.7-2.7,2.7c-1.492,0-2.7-1.213-2.7-2.7V148.004c0-1.492,1.208-2.7,2.7-2.7
			c1.49,0,2.7,1.208,2.7,2.7V285.261z M202.858,334.42c0,1.487-1.213,2.7-2.7,2.7c-1.492,0-2.7-1.213-2.7-2.7v-64.257
			c0-1.492,1.208-2.7,2.7-2.7c1.487,0,2.7,1.208,2.7,2.7V334.42z M202.858,241.924c0,1.492-1.213,2.7-2.7,2.7
			c-1.492,0-2.7-1.208-2.7-2.7v-16.58c0-1.477,1.208-2.699,2.7-2.699c1.487,0,2.7,1.223,2.7,2.699V241.924z"/>
		<path d="M298.37,35.116c18.173,0,33.519-8.039,33.519-17.555c0-9.519-15.346-17.555-33.519-17.555
			c-18.172,0-33.518,8.042-33.518,17.555C264.853,27.077,280.209,35.116,298.37,35.116z M298.37,5.347
			c12.741,0,22.35,5.252,22.35,12.213s-9.598,12.216-22.35,12.216c-12.74,0-22.343-5.25-22.343-12.216S285.63,5.347,298.37,5.347z"
			/>
		<path d="M298.37,24.376c10.347,0,16.949-4.034,16.949-6.816c0-2.779-6.603-6.813-16.949-6.813
			c-10.346,0-16.943,4.039-16.943,6.813C281.427,20.337,288.029,24.376,298.37,24.376z M292.844,14.861h10.441
			c1.487,0,2.7,1.21,2.7,2.7c0,1.493-1.213,2.7-2.7,2.7h-10.441c-1.487,0-2.7-1.207-2.7-2.7
			C290.144,16.071,291.352,14.861,292.844,14.861z"/>
		<path d="M331.889,29.344c-3.502,3.509-8.501,6.399-14.576,8.353c0,0.044,0.021,0.077,0.021,0.119v110.188
			c0,1.49-1.208,2.7-2.7,2.7c-1.477,0-2.7-1.21-2.7-2.7V39.103c-4.197,0.896-8.765,1.408-13.563,1.408
			c-14.459,0-26.805-4.442-33.518-11.171v100.849c0,0.008,0,0.013,0,0.013v223.441c0,9.519,15.346,17.556,33.518,17.556
			c18.173,0,33.519-8.042,33.519-17.556V137.9c0-0.01-0.006-0.016-0.006-0.026L331.889,29.344z M301.07,285.261
			c0,1.487-1.207,2.7-2.7,2.7c-1.486,0-2.699-1.213-2.699-2.7V148.004c0-1.492,1.213-2.7,2.699-2.7c1.493,0,2.7,1.208,2.7,2.7
			V285.261z M317.345,334.42c0,1.487-1.224,2.7-2.7,2.7c-1.492,0-2.7-1.213-2.7-2.7v-64.257c0-1.492,1.208-2.7,2.7-2.7
			c1.477,0,2.7,1.208,2.7,2.7V334.42z M317.345,241.924c0,1.492-1.224,2.7-2.7,2.7c-1.492,0-2.7-1.208-2.7-2.7v-16.58
			c0-1.477,1.208-2.699,2.7-2.699c1.477,0,2.7,1.223,2.7,2.699V241.924z"/>
	</g>
</g>
</svg>